Coordinates
version=1
nRows=29
nColumns=18
inDegrees=yes

Units are S.I. units (second, meters, Newtons, ...)
If the header above contains a line with 'inDegrees', this indicates whether rotational values are in degrees (yes) or radians (no).

endheader
time	TH_y	TH_x	TH_z	TH_x_trans	TH_y_trans	TH_z_trans	SC_y	SC_z	SC_x	AC_y	AC_z	AC_x	GH_y	GH_z	GH_yy	EL_x	PS_y
     34.83000000	   -149.09084346	     -0.26816689	     -4.18972453	      0.06035255	      1.50726779	      0.00522013	    -14.35419448	      0.49708274	    -11.07240522	     92.45270914	    -16.90683429	     10.59180859	    -37.27491747	     42.35539016	    -47.46020686	     85.85238837	     82.55668740
     34.84000000	   -149.11507245	     -0.26726588	     -4.16362078	      0.06015510	      1.50726231	      0.00513872	    -14.16673248	      0.44527844	    -11.21847338	     92.73280194	    -17.06597021	     10.45963221	    -36.85823803	     42.52465313	    -46.62557434	     85.84309127	     83.19674208
     34.85000000	   -149.13725553	     -0.25714186	     -4.13008919	      0.05995575	      1.50727592	      0.00503694	    -13.97904598	      0.38602053	    -11.36388719	     92.98978073	    -17.22674643	     10.32925990	    -36.43521132	     42.70703400	    -45.75026112	     85.82771494	     83.75488520
     34.86000000	   -149.14781512	     -0.24758165	     -4.07992070	      0.05981264	      1.50729886	      0.00492202	    -13.71167196	      0.35060971	    -11.47611068	     93.52645173	    -17.36632628	     10.03172968	    -36.03037150	     42.71271643	    -45.21249992	     85.80440787	     83.83810852
     34.87000000	   -149.16752538	     -0.23360184	     -4.05487615	      0.05959538	      1.50732920	      0.00484457	    -13.51725647	      0.31596394	    -11.60732530	     93.82107661	    -17.51686266	      9.85910681	    -35.60015411	     42.87818799	    -44.35913864	     85.78167014	     84.58155991
     34.88000000	   -149.18147381	     -0.21986543	     -4.00316944	      0.05944779	      1.50737160	      0.00473626	    -13.23980508	      0.29342473	    -11.71743116	     94.37869343	    -17.66186070	      9.52042989	    -35.18451864	     42.89962945	    -43.78846133	     85.75441417	     84.65653980
     34.89000000	   -149.26661201	     -0.19900214	     -4.01495903	      0.05900338	      1.50741912	      0.00474542	    -13.39599464	      0.17217157	    -11.97151790	     93.39831392	    -17.91813615	      9.92195446	    -34.54698801	     43.85027790	    -41.07156695	     85.75734027	     84.93163853
     34.90000000	   -149.27319773	     -0.18506674	     -3.95448364	      0.05888369	      1.50748439	      0.00464480	    -13.11323217	      0.16025393	    -12.08218105	     94.00111973	    -18.07526829	      9.49650549	    -34.13402055	     43.88083764	    -40.48168924	     85.74271794	     85.01728286
     34.91000000	   -149.27702885	     -0.16695800	     -3.90682009	      0.05873270	      1.50754755	      0.00456651	    -12.90444007	      0.15796946	    -12.20500931	     94.44144323	    -18.24513511	      9.13564008	    -33.69739558	     44.02790962	    -39.63122769	     85.73312972	     85.46097879
     34.92000000	   -149.28377423	     -0.16045718	     -3.83935811	      0.05865059	      1.50761597	      0.00448090	    -12.62511763	      0.15884891	    -12.31397919	     95.06464190	    -18.41920196	      8.63641087	    -33.27819173	     44.08793393	    -38.97899997	     85.74592578	     85.53016057
     34.93000000	   -149.36018263	     -0.14423485	     -3.83413679	      0.05825944	      1.50767581	      0.00451424	    -12.84725413	      0.07380045	    -12.53386455	     93.97677625	    -18.67802678	      8.92847097	    -32.61364993	     45.06939374	    -35.89471317	     85.81536362	     85.53427837
     34.94000000	   -149.34021433	     -0.13285272	     -3.76186305	      0.05822442	      1.50773750	      0.00442796	    -12.61615724	      0.09885736	    -12.64276299	     94.62291375	    -18.86012426	      8.36072677	    -32.19631571	     45.16076970	    -35.18680865	     85.85168073	     85.64367549
     34.95000000	   -149.39859489	     -0.11928860	     -3.72302310	      0.05794421	      1.50780524	      0.00442058	    -12.74679015	      0.02101244	    -12.83231174	     93.87390796	    -19.10185055	      8.46196500	    -31.62507388	     45.98414428	    -32.48707389	     85.97156716	     85.79484556
     34.96000000	   -149.36377524	     -0.10954034	     -3.64280531	      0.05796374	      1.50785406	      0.00433309	    -12.54224835	      0.05568943	    -12.93531684	     94.52760080	    -19.28650894	      7.84413603	    -31.21911529	     46.09415864	    -31.75500998	     86.05180073	     85.91936768
     34.97000000	   -149.42252445	     -0.09645367	     -3.60650388	      0.05769018	      1.50789884	      0.00433459	    -12.71143382	     -0.01169110	    -13.10919519	     93.69586278	    -19.51002275	      7.98654096	    -30.66942036	     46.95679683	    -28.89075045	     86.22631283	     86.15822872
     34.98000000	   -149.42121075	     -0.08277933	     -3.54148747	      0.05760277	      1.50793395	      0.00427697	    -12.69306827	     -0.02775726	    -13.24122306	     93.65489060	    -19.70594180	      7.73205659	    -30.22859507	     47.42958350	    -27.16517972	     86.38824161	     86.43355240
     34.99000000	   -149.38892545	     -0.06694584	     -3.45959932	      0.05762493	      1.50795795	      0.00417915	    -12.53363455	     -0.00040257	    -13.33902902	     94.11724151	    -19.87872019	      7.20657715	    -29.84638220	     47.61789200	    -26.24416462	     86.54409996	     86.91277239
     35.00000000	   -149.40260545	     -0.05446659	     -3.42122595	      0.05747016	      1.50795828	      0.00415829	    -12.63389617	     -0.02516920	    -13.46757407	     93.65750476	    -20.05339448	      7.20290655	    -29.38953465	     48.26726458	    -23.96021716	     86.76201982	     87.16842121
     35.01000000	   -149.35877180	     -0.03202344	     -3.34189625	      0.05751823	      1.50796165	      0.00403448	    -12.46135945	      0.01042838	    -13.55346242	     94.14481391	    -20.20669045	      6.69229506	    -29.03718585	     48.40789575	    -23.19115221	     86.93707642	     87.69173378
     35.02000000	   -149.31537476	     -0.01595623	     -3.27579739	      0.05755769	      1.50794588	      0.00392965	    -12.31545773	      0.03972498	    -13.63582418	     94.49160968	    -20.34942024	      6.28101767	    -28.69239263	     48.58876122	    -22.30237671	     87.13753758	     88.30945007
     35.03000000	   -149.27387489	      0.00909619	     -3.21752661	      0.05757962	      1.50792870	      0.00381931	    -12.19018430	      0.06606502	    -13.71830530	     94.72733383	    -20.48281062	      5.96029622	    -28.35264201	     48.79030226	    -21.33152253	     87.33879640	     88.94396547
     35.04000000	   -149.22662779	      0.03406591	     -3.16787422	      0.05760650	      1.50790184	      0.00370619	    -12.07310055	      0.09053423	    -13.79579934	     94.91480985	    -20.60393885	      5.69229398	    -28.02550817	     48.98537357	    -20.37701230	     87.54029514	     89.55172459
     35.05000000	   -149.18011477	      0.06441023	     -3.12611805	      0.05763263	      1.50787497	      0.00358783	    -11.95054541	      0.11519736	    -13.87205646	     95.06959790	    -20.71502790	      5.47357729	    -27.71328195	     49.16187119	    -19.46839051	     87.73313418	     90.17305630
     35.06000000	   -149.12054001	      0.08800905	     -3.08723905	      0.05769483	      1.50784211	      0.00345730	    -11.82641171	      0.12845424	    -13.93941199	     95.23144271	    -20.81520254	      5.26749078	    -27.42376152	     49.30888087	    -18.66502351	     87.92478793	     90.77324991
     35.07000000	   -149.05095057	      0.11148797	     -3.05368965	      0.05777740	      1.50781106	      0.00332052	    -11.71375712	      0.13303159	    -14.00112271	     95.37546101	    -20.90597541	      5.08964369	    -27.15206496	     49.43967449	    -17.91997300	     88.10508024	     91.37654079
     35.08000000	   -148.98416342	      0.13398336	     -3.02626764	      0.05786679	      1.50778648	      0.00318379	    -11.61161003	      0.12783276	    -14.05736858	     95.47043009	    -20.98709815	      4.95333170	    -26.89390713	     49.56958149	    -17.17801701	     88.27389103	     91.96948805
     35.09000000	   -148.94842255	      0.15845166	     -3.02295999	      0.05784629	      1.50777486	      0.00308769	    -11.68216510	      0.08051425	    -14.10845064	     94.97553272	    -21.04379539	      5.14534618	    -26.59794581	     49.93428131	    -15.56970320	     88.46299030	     92.27895899
     35.10000000	   -148.86545535	      0.17314408	     -2.99654398	      0.05800962	      1.50776290	      0.00293105	    -11.56896951	      0.06087415	    -14.14865567	     95.20134717	    -21.11346105	      4.94318450	    -26.38505044	     49.99341701	    -15.13220678	     88.59209744	     92.77968553
     35.11000000	   -148.81385594	      0.18637721	     -2.99459070	      0.05806429	      1.50776202	      0.00281507	    -11.62152707	      0.00445888	    -14.18161658	     94.88139950	    -21.15787101	      5.04112431	    -26.13974320	     50.28127491	    -13.86686102	     88.74189509	     93.09435773
